{"title":"21Sextury - Teen Anal Hysteria 3 DVDRip","uid":10788933,"size":1467142202,"categoryP":"porn","categoryS":"movies","magnet":"?xt=urn:btih:e4e68941c8959411145918eef14e9084fc2c3c3a&amp;dn=21Sextury+-+Teen+Anal+Hysteria+3+DVDRip&amp;tr=udp%3A%2F%2Ftracker.openbittorrent.com%3A80&amp;tr=udp%3A%2F%2Fopen.demonii.com%3A1337&amp;tr=udp%3A%2F%2Ftracker.coppersurfer.tk%3A6969&amp;tr=udp%3A%2F%2Fexodus.desync.com%3A6969","seeders":1,"leechers":1,"uploader":"ThousandPeers","files":19,"time":1408238374,"description":"Video\n\nID                                       : 0\nFormat                                   : MPEG-4 Visual\nFormat profile                           : Advanced Simple@L5\nFormat settings, BVOP                    : 2\nFormat settings, QPel                    : No\nFormat settings, GMC                     : No warppoints\nFormat settings, Matrix                  : Default (H.263)\nCodec ID                                 : XVID\nCodec ID/Hint                            : XviD\nDuration                                 : 1h 14mn\nBit rate                                 : 1 176 Kbps\nWidth                                    : 624 pixels\nHeight                                   : 352 pixels\nDisplay aspect ratio                     : 16:9\nFrame rate                               : 29.970 fps\nColor space                              : YUV\nChroma subsampling                       : 4:2:0\nBit depth                                : 8 bits\nScan type                                : Progressive\nCompression mode                         : Lossy\nBits/(Pixel*Frame)                       : 0.179\nStream size                              : 625 MiB (89%)\nWriting library                          : XviD 64\n\n\n\nAudio\n\nID                                       : 1\nFormat                                   : MPEG Audio\nFormat version                           : Version 1\nFormat profile                           : Layer 3\nMode                                     : Joint stereo\nMode extension                           : MS Stereo\nCodec ID                                 : 55\nCodec ID/Hint                            : MP3\nDuration                                 : 1h 14mn\nBit rate mode                            : Variable\nBit rate                                 : 119 Kbps\nMinimum bit rate                         : 32.0 Kbps\nChannel(s)                               : 2 channels\nSampling rate                            : 48.0 KHz\nCompression mode                         : Lossy\nStream size                              : 66.8 MiB (10%)","torrent":{"xt":"urn:btih:e4e68941c8959411145918eef14e9084fc2c3c3a","amp;dn":"21Sextury+-+Teen+Anal+Hysteria+3+DVDRip","amp;tr":["udp%3A%2F%2Ftracker.openbittorrent.com%3A80","udp%3A%2F%2Fopen.demonii.com%3A1337","udp%3A%2F%2Ftracker.coppersurfer.tk%3A6969","udp%3A%2F%2Fexodus.desync.com%3A6969"],"infoHash":"e4e68941c8959411145918eef14e9084fc2c3c3a","infoHashBuffer":{"type":"Buffer","data":[228,230,137,65,200,149,148,17,20,89,24,238,241,78,144,132,252,44,60,58]},"announce":[],"urlList":[]}}